<?xml version="1.0" standalone="no"?>
<!DOCTYPE svg PUBLIC "-//W3C//DTD SVG 20010904//EN"
 "http://www.w3.org/TR/2001/REC-SVG-20010904/DTD/svg10.dtd">
<svg version="1.0" xmlns="http://www.w3.org/2000/svg"
 width="235.000000pt" height="250.000000pt" viewBox="0 0 235.000000 250.000000"
 preserveAspectRatio="xMidYMid meet">
<metadata>
Created by potrace 1.10, written by Peter Selinger 2001-2011
</metadata>
<g transform="translate(0.000000,250.000000) scale(0.100000,-0.100000)"
fill="#000000" stroke="none">
<path d="M100 2485 c0 -9 8 -19 18 -22 26 -10 32 -23 32 -82 0 -46 -2 -52 -15
-41 -12 10 -16 9 -20 -2 -6 -14 10 -68 20 -68 2 0 0 12 -5 26 -14 37 -13 49 6
34 22 -19 14 -65 -11 -66 -11 -1 -25 -2 -31 -3 -6 -1 -9 -11 -7 -23 2 -13 -5
-43 -16 -68 -11 -24 -17 -48 -15 -52 3 -4 -2 -8 -10 -8 -9 0 -16 7 -16 15 0 8
5 15 10 15 6 0 10 5 10 10 0 7 -7 7 -20 0 -16 -8 -18 -15 -11 -28 7 -12 5 -22
-6 -35 -13 -14 -14 -22 -5 -42 7 -15 8 -26 1 -30 -5 -4 -7 -11 -3 -16 3 -5 10
-7 15 -4 5 4 6 -2 2 -12 -6 -16 -5 -16 11 -4 9 8 14 21 11 29 -3 9 0 20 7 25
10 6 8 7 -4 4 -25 -9 -42 17 -28 42 6 12 16 21 22 21 7 0 6 -5 -2 -15 -10 -12
-9 -15 8 -15 11 0 22 -5 24 -12 3 -7 13 2 23 20 11 18 23 32 27 32 13 0 9 -38
-4 -43 -7 -2 7 -13 32 -24 70 -31 78 -33 90 -17 7 8 19 14 27 14 23 0 11 -33
-17 -47 -20 -10 -27 -9 -42 4 -13 11 -18 12 -18 3 0 -7 -8 -10 -20 -7 -18 5
-45 -14 -35 -25 3 -3 -1 -11 -10 -18 -12 -10 -15 -10 -16 1 0 8 -4 4 -9 -8
-13 -31 -53 -32 -48 -1 4 26 28 37 28 12 0 -17 1 -17 14 1 7 10 11 27 8 37 -2
10 1 18 7 18 6 0 8 -7 4 -17 -4 -11 -3 -14 5 -9 15 9 16 56 1 56 -5 0 -7 -5
-3 -11 4 -7 1 -10 -7 -7 -8 3 -13 11 -11 18 5 22 -25 -7 -31 -30 -3 -13 -1
-17 9 -13 8 3 14 0 14 -7 0 -7 -8 -10 -20 -7 -14 3 -21 -1 -26 -17 -16 -47
-13 -64 12 -69 13 -2 25 1 27 7 2 6 4 -5 5 -24 1 -37 -12 -69 -24 -57 -4 4 -2
18 4 32 12 27 10 29 -31 39 -16 4 -27 2 -27 -4 0 -10 13 -14 43 -11 15 2 16
-1 6 -23 -7 -13 -8 -33 -5 -43 7 -17 9 -16 26 5 18 22 19 22 25 2 3 -11 11
-20 17 -20 7 0 7 4 0 13 -14 16 -25 117 -13 117 5 0 11 -9 14 -20 3 -11 1 -20
-4 -20 -5 0 -9 -5 -9 -11 0 -5 4 -7 10 -4 10 6 14 -7 11 -34 -2 -8 2 -10 10
-5 9 5 10 2 6 -10 -4 -10 -1 -19 8 -22 8 -4 15 -11 15 -17 0 -8 -3 -8 -11 0
-11 11 -59 5 -59 -8 0 -5 4 -9 9 -9 5 0 7 -9 4 -20 -3 -11 0 -20 6 -20 6 0 11
9 11 19 0 11 4 23 10 26 6 4 10 -5 10 -20 0 -15 4 -24 10 -20 5 3 10 -3 10
-15 0 -12 -4 -18 -10 -15 -6 4 -10 -5 -10 -20 0 -18 -7 -28 -25 -35 -14 -5
-25 -16 -25 -25 0 -12 14 -15 75 -15 61 0 75 3 75 15 0 9 -11 20 -24 24 -22 9
-44 51 -25 51 5 0 9 -8 10 -17 0 -10 3 -13 5 -7 3 7 14 10 24 7 11 -3 20 0 20
6 0 6 -9 11 -19 11 -14 0 -18 5 -14 20 3 12 0 20 -6 20 -7 0 -10 -4 -6 -9 3
-5 1 -12 -5 -16 -5 -3 -10 -1 -10 6 0 6 -8 18 -17 26 -17 13 -16 14 3 8 18 -5
21 -2 17 19 -3 13 -1 26 5 30 5 3 12 -8 16 -24 3 -17 9 -30 14 -30 10 0 32 44
32 65 0 9 6 12 15 9 18 -7 21 21 3 32 -8 5 -9 2 -5 -9 4 -10 2 -16 -5 -14 -6
1 -16 -13 -21 -30 -5 -18 -14 -33 -18 -33 -17 0 -9 37 13 66 27 33 31 54 13
54 -8 0 -17 5 -21 12 -5 8 -2 9 9 5 9 -3 19 -2 22 3 4 6 0 10 -8 10 -12 0 -27
20 -27 35 0 2 14 -2 32 -9 38 -17 52 -46 29 -63 -9 -7 -11 -12 -6 -13 22 0 31
17 32 64 1 35 8 55 25 75 23 25 23 26 0 7 -12 -11 -25 -16 -29 -12 -4 4 -1 11
6 15 9 6 10 11 2 15 -16 10 -14 26 4 26 8 0 15 -4 15 -10 0 -5 5 -10 11 -10
17 0 -1 21 -29 31 -19 7 -22 13 -14 21 7 7 12 17 12 22 0 6 -5 3 -11 -7 -10
-16 -11 -16 -34 0 -27 20 -33 35 -10 27 11 -5 13 -2 9 10 -4 11 -1 16 12 16
16 0 17 2 4 10 -12 7 -8 10 15 10 22 0 26 -3 16 -9 -11 -7 -12 -13 -4 -23 6
-7 63 -130 128 -273 65 -143 119 -262 121 -264 2 -2 8 7 13 20 5 13 85 191
178 394 93 204 174 381 181 395 8 19 11 -43 11 -262 l1 -288 -39 -52 c-67 -88
-74 -173 -22 -246 61 -86 214 -80 270 11 43 71 36 139 -20 193 -26 25 -41 30
-97 34 -64 5 -67 6 -70 32 -7 57 133 112 288 113 81 0 101 -3 135 -23 106 -61
125 -200 38 -284 -18 -18 -129 -107 -246 -198 -224 -174 -272 -224 -308 -320
-43 -114 -22 -224 61 -314 177 -192 501 -214 683 -47 44 40 44 41 56 18 10
-19 -4 -68 -104 -361 -64 -187 -121 -346 -127 -353 -6 -7 -22 -19 -37 -26 -31
-15 -41 -47 -14 -47 22 1 76 46 93 79 26 51 280 806 280 835 0 7 6 21 14 31
13 17 15 17 50 -10 24 -18 36 -34 32 -44 -3 -9 -37 -108 -76 -221 -42 -121
-69 -215 -66 -230 3 -16 -4 -34 -18 -51 -24 -28 -106 -260 -106 -300 0 -34 22
-89 37 -89 10 0 33 29 33 43 0 3 -9 7 -20 10 -11 3 -20 11 -20 19 0 7 22 79
48 158 l49 145 123 3 123 3 -6 -36 c-7 -41 10 -54 47 -37 16 7 23 7 24 -1 5
-59 46 -142 64 -131 6 4 8 24 5 45 l-5 38 25 -16 c19 -13 23 -22 18 -41 -6
-23 -5 -23 11 -8 9 9 19 14 23 10 3 -4 0 -9 -7 -11 -6 -3 -10 -9 -6 -14 5 -9
-16 -31 -61 -64 -17 -12 -18 -14 -3 -15 9 0 20 4 23 10 10 17 25 11 18 -7 -4
-11 -3 -14 6 -9 6 4 11 17 9 28 -6 40 21 30 32 -12 12 -43 7 -60 -16 -60 -15
0 -17 -9 -8 -34 9 -22 44 -21 44 2 0 39 21 43 61 12 44 -36 72 -40 61 -9 -4
11 -19 25 -32 32 -23 11 -67 87 -85 144 -5 18 -3 22 10 17 9 -4 14 -13 11 -20
-3 -8 -1 -14 4 -14 13 0 13 27 0 35 -8 5 -7 12 2 23 11 13 10 15 -14 10 -16
-3 -28 -1 -28 3 0 5 7 9 15 9 10 0 15 10 15 29 0 16 3 37 7 47 4 12 3 15 -5
10 -7 -4 -12 -2 -12 3 0 6 8 11 18 11 14 0 15 2 2 10 -8 5 -10 10 -5 10 6 0
17 -5 25 -10 12 -8 12 -10 1 -10 -11 0 -11 -4 2 -18 10 -10 17 -27 17 -37 0
-17 -1 -17 -20 0 -11 10 -20 15 -20 12 0 -9 31 -37 41 -37 12 0 12 36 -1 60
-8 15 -5 20 21 29 32 11 31 31 -1 31 -13 0 -17 5 -14 15 4 8 -2 27 -12 43 -10
15 -17 30 -16 35 1 4 -4 7 -12 7 -7 0 -16 10 -20 22 -8 33 -7 40 4 33 6 -4 8
-11 5 -16 -4 -5 -2 -9 4 -9 18 0 21 17 6 30 -19 16 -19 34 0 27 8 -4 17 -2 20
4 4 5 11 7 16 3 6 -4 3 -14 -7 -25 -9 -10 -14 -19 -10 -19 4 0 2 -8 -3 -18
-10 -18 12 -62 25 -49 4 4 1 15 -7 24 -13 16 -12 17 4 4 20 -16 35 -8 20 11
-5 7 -8 25 -7 40 2 18 -5 33 -19 45 -15 12 -21 27 -19 45 3 26 1 28 -32 28
-24 0 -36 5 -36 14 0 8 -7 16 -15 20 -10 3 -15 19 -15 42 0 36 0 37 -35 31
-19 -3 -37 -1 -41 4 -3 5 -10 7 -15 4 -13 -9 -11 7 5 46 12 28 16 31 21 16 4
-9 4 -29 1 -45 -5 -22 -4 -24 5 -9 13 22 8 69 -8 75 -7 2 -18 -9 -24 -25 -11
-28 -11 -28 -20 -6 -8 23 -29 32 -29 13 0 -5 -12 -10 -27 -10 -26 0 -27 1 -8
14 11 7 29 15 39 17 11 2 21 10 24 17 6 18 -28 15 -51 -6 -11 -9 -17 -12 -14
-5 4 6 3 14 -3 18 -5 3 -10 17 -10 31 0 13 -5 24 -11 24 -6 0 -9 -8 -6 -19 4
-16 1 -17 -31 -10 -50 11 -83 39 -111 92 -19 38 -21 50 -11 62 20 24 38 18 64
-24 63 -99 158 -117 229 -43 80 83 65 205 -31 260 -123 69 -253 -24 -282 -201
-7 -40 -21 -92 -31 -116 -10 -24 -17 -47 -14 -51 5 -9 -23 -100 -36 -114 -5
-6 -11 -3 -14 6 -4 9 5 34 21 57 15 23 25 44 22 46 -3 3 -17 -13 -32 -36 -15
-23 -31 -37 -35 -33 -5 5 -59 77 -121 159 -131 174 -140 199 -80 244 188 143
250 236 250 376 0 107 -55 197 -166 270 -89 59 -183 88 -284 87 -47 0 -100 -5
-117 -11 l-33 -10 0 235 c0 235 5 274 35 274 8 0 15 9 15 20 0 31 -33 24 -61
-12 -24 -32 -24 -37 -27 -263 -3 -219 -4 -231 -23 -247 -25 -21 -58 -24 -60
-5 -1 6 -5 116 -9 242 -9 259 -15 307 -37 303 -9 -2 -77 -139 -162 -325 -81
-178 -150 -325 -153 -328 -2 -3 -71 142 -153 321 -134 293 -164 349 -181 331
-7 -6 271 -622 297 -659 24 -33 24 -40 -2 -90 -19 -37 -22 -39 -33 -22 -15 22
-198 423 -216 474 -8 19 -19 42 -25 50 -16 19 -27 66 -26 106 1 38 -52 93 -93
96 -15 1 -36 13 -46 25 -20 26 -60 31 -60 8z m111 -67 l10 -23 -5 23 c-2 12 0
22 5 22 5 0 9 -15 8 -32 0 -18 3 -47 6 -65 6 -25 11 -31 27 -28 16 3 19 0 15
-16 -7 -27 23 -99 42 -100 13 -1 13 -2 -1 -6 -10 -2 -29 7 -44 20 -20 19 -25
31 -21 56 3 18 3 30 0 27 -4 -3 -12 -1 -18 4 -9 8 -14 6 -19 -5 -3 -9 0 -15 9
-15 8 0 15 -5 15 -11 0 -5 -5 -7 -11 -3 -8 4 -8 0 0 -15 7 -11 10 -21 9 -21
-2 -1 -20 -3 -40 -6 -20 -3 -45 -1 -56 5 -17 9 -20 7 -25 -17 -6 -33 2 -45 10
-14 6 25 23 30 23 7 0 -8 5 -15 10 -15 6 0 10 5 10 11 0 6 6 9 14 6 8 -3 17
-1 20 6 3 9 5 8 5 -1 1 -7 -7 -16 -16 -19 -19 -7 -33 -22 -33 -38 0 -5 7 -2
16 7 14 14 20 14 42 2 22 -11 27 -11 38 4 14 19 13 22 -12 26 -20 3 -32 26
-14 26 24 0 50 -21 50 -41 0 -26 -60 -55 -74 -35 -7 11 -15 10 -40 -3 -41 -20
-57 -22 -75 -8 -12 10 -14 9 -7 -8 5 -14 4 -17 -4 -9 -12 12 -3 47 10 39 4 -3
11 2 14 11 5 12 2 15 -10 10 -15 -6 -15 -4 -3 10 8 9 12 28 11 41 -3 22 0 24
26 22 38 -4 72 34 72 81 0 18 4 29 10 25 6 -3 10 -2 10 4 0 5 -4 11 -10 13
-11 3 -26 68 -16 68 4 0 11 -10 17 -22z m-11 -289 c0 -6 8 -8 19 -4 25 8 61
-14 61 -37 0 -9 4 -20 10 -23 6 -4 7 1 3 12 -4 12 -3 15 5 8 16 -15 19 -68 5
-72 -8 -3 -13 4 -13 16 0 12 -6 21 -15 21 -9 0 -15 9 -15 25 0 19 -7 26 -32
33 -30 8 -33 6 -38 -17 -6 -30 14 -44 43 -29 12 6 17 5 17 -6 0 -9 -12 -19
-27 -22 -30 -8 -57 19 -49 49 2 9 0 15 -5 11 -5 -3 -9 -12 -9 -20 0 -8 -4 -14
-10 -14 -12 0 -13 40 -2 56 7 10 28 21 45 23 4 1 7 -4 7 -10z m38 -41 c-7 -19
-38 -22 -38 -4 0 10 9 16 21 16 12 0 19 -5 17 -12z m82 -119 c0 -21 -34 -26
-60 -9 -13 9 -13 11 0 20 8 5 21 8 28 5 6 -2 12 0 12 6 0 6 5 7 10 4 6 -3 10
-15 10 -26z m-101 2 c9 -6 1 -10 -26 -12 -27 -3 -40 0 -40 8 0 15 45 17 66 4z
m16 -31 c4 -6 1 -18 -6 -26 -11 -13 -10 -18 4 -25 9 -6 17 -18 16 -27 0 -14
-2 -14 -10 3 -8 17 -9 16 -6 -7 2 -15 1 -26 -4 -25 -4 1 -15 -7 -23 -18 -16
-20 -16 -20 -31 -1 -18 24 -19 39 -2 33 16 -5 47 31 40 49 -3 8 -10 11 -16 7
-6 -4 -8 0 -4 10 4 11 2 14 -9 10 -7 -3 -14 0 -14 7 0 6 4 9 8 6 4 -2 14 -1
22 5 19 12 27 11 35 -1z m-38 -57 c4 -12 -36 -25 -49 -17 -11 7 23 35 36 31 6
-2 11 -8 13 -14z m1396 -77 c67 -65 91 -117 91 -196 -1 -82 -37 -164 -103
-229 -71 -70 -183 -166 -211 -181 -29 -15 -178 -130 -233 -179 -57 -51 -77
-98 -77 -177 l0 -66 -32 19 c-44 25 -103 106 -118 159 -22 76 8 182 76 271 14
18 116 103 227 190 111 87 219 173 240 192 59 53 79 101 75 177 -2 44 1 64 9
64 6 0 31 -20 56 -44z m-607 -21 c16 -8 48 -15 70 -15 107 0 139 -122 52 -195
-23 -19 -41 -25 -80 -25 -43 0 -54 4 -83 33 -53 53 -58 114 -15 185 23 37 20
36 56 17z m1082 -550 c86 -72 52 -208 -56 -222 -42 -6 -43 -5 -102 58 -33 35
-60 70 -60 78 0 22 40 76 69 95 41 25 114 21 149 -9z m-543 -229 c69 -92 129
-174 131 -181 7 -16 -66 -78 -123 -105 -119 -56 -271 -65 -349 -21 -96 54
-123 183 -55 265 18 21 263 218 266 214 2 -2 60 -79 130 -172z m435 -149 c0
-6 -9 -2 -20 8 -26 23 -26 12 0 -23 11 -15 21 -39 22 -54 1 -16 5 -28 9 -28 4
0 9 -9 12 -20 3 -14 0 -20 -10 -20 -13 0 -13 -2 -2 -16 8 -10 15 -12 17 -5 6
17 32 13 32 -4 0 -8 -3 -15 -7 -15 -5 0 -18 -3 -31 -6 -18 -5 -21 -3 -16 11 6
15 4 16 -17 4 -13 -7 -24 -11 -24 -9 0 2 -9 -1 -20 -8 -13 -8 -15 -11 -5 -12
11 0 11 -3 2 -12 -15 -15 -15 -28 -1 -28 5 0 7 6 3 13 -5 9 -4 9 5 1 10 -9 10
-16 0 -32 -12 -18 -10 -23 14 -42 l27 -22 -30 -28 c-32 -30 -37 -45 -18 -56 7
-5 8 -3 4 5 -5 7 0 21 9 31 17 19 35 18 35 -1 0 -6 -4 -8 -8 -5 -5 3 -9 -1 -9
-9 0 -8 4 -12 8 -10 4 3 10 -2 13 -11 5 -13 2 -15 -14 -11 -11 3 -18 1 -14 -4
3 -5 -32 -9 -80 -9 -47 0 -86 3 -86 8 0 4 16 55 36 115 31 89 41 107 58 108
17 1 18 2 4 6 -10 2 -18 5 -18 6 1 10 68 205 74 215 6 11 12 10 27 -4 10 -9
19 -22 19 -27z m83 -24 c-4 -11 -3 -14 5 -9 7 4 12 3 12 -3 0 -5 -5 -13 -11
-16 -7 -5 -3 -15 11 -30 12 -13 21 -31 20 -41 -4 -34 0 -44 15 -44 11 0 12 5
5 26 -14 37 -13 43 16 56 28 13 44 1 44 -34 0 -24 -17 -23 -25 1 -4 12 -12 18
-21 14 -19 -7 -18 -23 1 -23 20 0 19 -19 -1 -42 -16 -16 -16 -18 0 -24 25 -10
19 -32 -8 -29 -14 2 -29 6 -34 9 -6 3 -12 0 -15 -8 -3 -7 -15 -16 -27 -19 -19
-5 -21 -3 -14 26 8 41 13 49 25 41 6 -4 6 -11 -2 -20 -7 -9 -8 -14 -1 -14 6 0
12 6 15 13 3 10 9 10 26 0 30 -19 37 -16 16 7 -10 11 -22 17 -27 14 -5 -4 -9
4 -8 17 4 43 0 56 -15 56 -9 0 -11 -4 -6 -11 9 -12 11 -46 2 -46 -14 1 -41 28
-41 41 0 8 6 26 14 40 15 30 10 44 -19 52 -12 4 -9 5 8 3 15 -2 30 1 33 5 9
15 14 10 7 -8z m141 -132 c3 -4 -7 -6 -22 -3 -26 4 -26 4 -7 -11 11 -8 23 -13
27 -11 13 8 9 -31 -4 -44 -26 -26 -43 -14 -42 28 1 22 2 42 3 45 2 8 39 6 45
-4z m52 -58 c5 4 2 12 -6 17 -12 8 -10 10 9 10 20 0 22 -4 17 -24 -4 -18 -1
-28 11 -35 10 -6 12 -11 6 -11 -7 0 -22 9 -34 21 -17 17 -23 18 -37 7 -14 -11
-15 -11 -9 5 4 10 7 24 7 30 0 6 6 2 14 -9 8 -10 18 -15 22 -11z m-232 -7 c-3
-8 -18 -19 -32 -25 l-27 -9 27 -1 27 -1 -25 -27 c-25 -27 -25 -27 -44 -7 -19
18 -19 21 -4 43 10 14 23 21 35 18 10 -3 20 1 23 9 3 8 10 14 15 14 6 0 8 -7
5 -14z m131 -42 c18 -38 19 -47 4 -42 -6 2 -9 6 -7 8 8 13 -28 36 -49 32 -18
-3 -23 0 -23 16 0 16 6 20 30 20 23 -1 33 -8 45 -34z m-85 0 c0 -8 -4 -13 -10
-9 -11 7 -39 -45 -33 -62 3 -7 -2 -13 -9 -13 -23 0 -18 61 6 82 26 22 46 23
46 2z m132 -1 c10 -9 18 -26 18 -37 0 -18 2 -19 11 -6 9 12 9 11 3 -5 -4 -11
-7 -33 -6 -50 1 -25 -1 -27 -9 -12 -6 9 -12 25 -14 35 -2 9 -10 31 -19 47 -25
47 -19 59 16 28z m-104 -34 c3 -17 -34 -23 -44 -7 -7 11 15 29 31 25 6 -2 11
-10 13 -18z m31 7 c10 -12 9 -20 -4 -40 -19 -29 -41 -32 -67 -12 -26 19 -22
26 11 20 16 -3 37 -1 48 5 10 6 13 11 7 11 -14 0 -28 30 -15 30 5 0 14 -6 20
-14z m-133 -32 c-4 -9 -1 -23 5 -31 7 -7 9 -16 6 -20 -4 -3 -1 -13 5 -21 10
-12 9 -14 -7 -10 -12 2 -20 12 -20 23 -1 11 -4 26 -9 33 -4 7 -2 19 4 27 16
20 24 19 16 -1z m194 -3 c0 -11 3 -26 6 -35 4 -12 0 -16 -15 -16 -12 0 -21 -4
-21 -10 0 -17 -28 -11 -39 8 -9 15 -10 15 -11 -4 0 -12 -7 -24 -15 -28 -8 -3
-15 -2 -15 3 0 4 -12 8 -27 7 -22 -1 -29 4 -31 22 -2 15 2 22 12 22 9 0 16 -4
16 -8 0 -15 39 -11 76 9 21 10 34 19 30 19 -5 0 -3 7 4 15 17 21 30 19 30 -4z
m40 -91 c0 -10 -6 -20 -12 -23 -10 -4 -10 -7 0 -18 9 -10 12 -10 12 0 0 7 5 9
10 6 12 -8 12 -16 0 -35 -9 -13 -11 -13 -20 0 -6 10 -10 11 -10 3 0 -7 -7 -13
-15 -13 -18 0 -19 4 -3 30 10 16 10 23 -5 37 -13 13 -19 15 -29 5 -16 -16 -61
-16 -56 0 2 6 17 13 33 15 15 2 37 10 48 18 24 17 47 4 47 -25z m64 8 c9 -12
16 -26 16 -30 0 -13 -41 -19 -55 -8 -22 18 -18 29 7 25 16 -4 19 -2 10 7 -7 7
-12 16 -12 20 0 16 19 8 34 -14z m-224 -18 c3 -1 8 -2 12 -1 8 1 5 -20 -6 -37
-5 -8 -4 -18 3 -25 18 -18 13 -27 -24 -43 -46 -19 -45 -19 -45 20 0 29 5 36
30 45 17 5 30 14 30 20 0 5 -12 3 -27 -5 -42 -21 -63 -18 -63 10 0 23 3 24 43
21 23 -2 44 -4 47 -5z m37 -34 c-3 -8 1 -20 9 -26 8 -7 14 -26 14 -42 0 -19 4
-27 12 -22 6 4 17 -1 25 -11 12 -18 13 -18 13 -1 0 14 6 17 24 14 21 -4 24 -2
20 20 -3 16 -1 23 8 20 7 -3 14 -21 16 -41 2 -28 0 -37 -13 -37 -8 0 -18 7
-22 16 -4 12 -9 8 -19 -16 l-14 -32 -38 28 c-24 19 -32 22 -22 9 14 -18 14
-19 -1 -7 -13 10 -15 20 -9 46 6 27 4 37 -12 50 -16 14 -17 20 -8 32 16 18 24
18 17 0z m48 -32 c56 -8 71 -39 19 -39 -21 0 -29 5 -29 18 0 10 -6 22 -14 26
-9 6 -11 15 -6 27 7 17 8 16 14 -6 4 -14 11 -26 16 -26z m-27 -156 c-3 -22 -4
-22 -21 9 -23 43 -21 58 4 34 13 -12 19 -28 17 -43z"/>
<path d="M129 2185 c-2 -7 -2 -43 0 -52 1 -5 7 3 15 17 7 14 11 28 9 33 -5 8
-22 10 -24 2z"/>
<path d="M1931 723 c2 -31 3 -33 6 -10 3 17 11 27 21 27 15 0 15 2 2 10 -25
16 -30 12 -29 -27z"/>
</g>
</svg>
